/* XPM */
static char * c_door_xpm[] = {
"48 48 210 2",
"  	c #81BA44",
". 	c #4E8400",
"+ 	c #80B943",
"@ 	c #83BB46",
"# 	c #82BB45",
"$ 	c #7FB842",
"% 	c #85BD47",
"& 	c #82BB44",
"* 	c #9FDF5B",
"= 	c #C1F27A",
"- 	c #7FB742",
"; 	c #7FB843",
"> 	c #91CE50",
", 	c #81B944",
"' 	c #7EB741",
") 	c #DDBBB3",
"! 	c #E0BEB0",
"~ 	c #DAB5A7",
"{ 	c #CCA49B",
"] 	c #BB928E",
"^ 	c #B6898C",
"/ 	c #B98D92",
"( 	c #D4ACA1",
"_ 	c #DAC0B7",
": 	c #DAB5AC",
"< 	c #CC9A8C",
"[ 	c #A3747F",
"} 	c #783F65",
"| 	c #763B64",
"1 	c #723763",
"2 	c #7E466A",
"3 	c #9E707E",
"4 	c #CBA99F",
"5 	c #CEA7A3",
"6 	c #C99F9B",
"7 	c #82506B",
"8 	c #78365E",
"9 	c #974949",
"0 	c #A54B34",
"a 	c #A64D2E",
"b 	c #A64732",
"c 	c #92424B",
"d 	c #844367",
"e 	c #905B77",
"f 	c #D2AEAA",
"g 	c #823A54",
"h 	c #AC502E",
"i 	c #C16027",
"j 	c #CA672C",
"k 	c #CD6332",
"l 	c #D46A2B",
"m 	c #A84E39",
"n 	c #8F5972",
"o 	c #C69291",
"p 	c #8E5E78",
"q 	c #B85029",
"r 	c #B6542D",
"s 	c #9D4B33",
"t 	c #642032",
"u 	c #73344D",
"v 	c #6D2C3B",
"w 	c #BA6038",
"x 	c #DD712C",
"y 	c #B95B35",
"z 	c #B07F84",
"A 	c #CFABA7",
"B 	c #D6B8B0",
"C 	c #AA4829",
"D 	c #853C34",
"E 	c #7D372D",
"F 	c #83455A",
"G 	c #7D4051",
"H 	c #AB5030",
"I 	c #E27731",
"J 	c #A9554E",
"K 	c #93607F",
"L 	c #CFB0AB",
"M 	c #915E7A",
"N 	c #A94A41",
"O 	c #CB5B25",
"P 	c #4B152E",
"Q 	c #963B32",
"R 	c #6C304B",
"S 	c #793A59",
"T 	c #813D4B",
"U 	c #742C3A",
"V 	c #D66D3A",
"W 	c #9F6189",
"X 	c #C3A3A1",
"Y 	c #C7B0B6",
"Z 	c #CB5D2A",
"` 	c #8C3D35",
" .	c #8D4033",
"..	c #5B1B3B",
"+.	c #B35231",
"@.	c #CB5933",
"#.	c #863B3A",
"$.	c #682B45",
"%.	c #722D41",
"&.	c #D56325",
"*.	c #AB6278",
"=.	c #BA949B",
"-.	c #C5ADB4",
";.	c #A9576E",
">.	c #B5492D",
",.	c #62243E",
"'.	c #7C343B",
").	c #5B1C40",
"!.	c #BB646A",
"~.	c #B690A0",
"{.	c #85BF47",
"].	c #BB6B72",
"^.	c #E6863A",
"/.	c #DC7331",
"(.	c #CC7264",
"_.	c #B48A9D",
":.	c #CCADAB",
"<.	c #E27226",
"[.	c #C45B27",
"}.	c #DC6C29",
"|.	c #DC6C26",
"1.	c #E98231",
"2.	c #E5782D",
"3.	c #E2742B",
"4.	c #CEB3B1",
"5.	c #D07233",
"6.	c #CD735C",
"7.	c #D0B6B2",
"8.	c #BE6B6D",
"9.	c #DF7931",
"0.	c #652325",
"a.	c #3F0C21",
"b.	c #813825",
"c.	c #B0879C",
"d.	c #E06F29",
"e.	c #BD652B",
"f.	c #480D25",
"g.	c #D17159",
"h.	c #AF869D",
"i.	c #DF7126",
"j.	c #591A35",
"k.	c #B2582A",
"l.	c #D46F56",
"m.	c #8CC34E",
"n.	c #C3A9AE",
"o.	c #D66F4E",
"p.	c #A37690",
"q.	c #83BC46",
"r.	c #84BC46",
"s.	c #6D2D47",
"t.	c #B17694",
"u.	c #AA89A6",
"v.	c #9C6585",
"w.	c #A85D87",
"x.	c #A383BF",
"y.	c #A16783",
"z.	c #82BC45",
"A.	c #D86725",
"B.	c #9C4735",
"C.	c #763750",
"D.	c #B36691",
"E.	c #A86795",
"F.	c #BBA2AD",
"G.	c #76384F",
"H.	c #D5652C",
"I.	c #CD624F",
"J.	c #C15959",
"K.	c #C0A5AF",
"L.	c #BC6162",
"M.	c #D15D22",
"N.	c #C1603F",
"O.	c #883C48",
"P.	c #D26236",
"Q.	c #976686",
"R.	c #B39BA8",
"S.	c #D66925",
"T.	c #C95521",
"U.	c #DB6D3E",
"V.	c #B197A9",
"W.	c #B95F60",
"X.	c #966588",
"Y.	c #88BF4A",
"Z.	c #AE90A4",
"`.	c #B75D5F",
" +	c #964078",
".+	c #B86C7C",
"++	c #AA5073",
"@+	c #BB4E63",
"#+	c #A7889C",
"$+	c #C0655C",
"%+	c #DB6D46",
"&+	c #C45B7F",
"*+	c #C76476",
"=+	c #C37072",
"-+	c #9B6A8A",
";+	c #B5A2B7",
">+	c #A5819A",
",+	c #B75855",
"'+	c #D05D32",
")+	c #9B6F93",
"!+	c #D05C28",
"~+	c #9B7297",
"{+	c #ADA5BC",
"]+	c #AC8E9F",
"^+	c #B2686C",
"/+	c #BE6254",
"(+	c #C67467",
"_+	c #82BA44",
":+	c #7AB23E",
"<+	c #7BB43F",
"                                                                                                ",
"                                                                                                ",
"    .                                                                                           ",
"      .     +             .       .                       @ #                       .           ",
"      .   $                 .   .                         % &       * = =             .     .   ",
"          -                 .   .                       + ;       > * =               .   .     ",
"                                                          , '     * * . .                 .     ",
"                                                                    . .                         ",
"                                                                                                ",
"                                            ) ! ) )                                             ",
"                                        ~ { ] ^ / { ( _                                         ",
"                                    : < [ } | 1 | 2 3 4 5                                       ",
"                                  ) 6 7 8 9 0 a b c d e 6 f                                     ",
"                                ) { 2 g h i j k l l m 8 n o                                     ",
"                                ~ p g q r s t u v w x y | z A                                   ",
"                              B / 8 C a D E u F G D H I J K L                                   ",
"                              : M N O P b Q R S T b U h V W X Y                                 ",
"                              ( d Z `  .....+.@.#.$.%.0 &.*.=.-.                                ",
"                              5 ;.>...,.v ..'.).U ,.'...r !.~.Y         {.            = = *     ",
"                              A ].x x ^.^././.x x x x /./.(._.-.        #               = * *   ",
"                              :.].<.O [.O Z Z Z Z O O O /.(._.Y             +         . . * *   ",
"                              :.].<.}.}.|.<.1.1.2.3.3.}.}.(._.-.                        . .     ",
"                              4.].<.}.}.}.3.5.a x 2.3.3.x 6._.Y                                 ",
"                              7.8.<.}.}.}.9.0.a.b.2.3.3.x 6.c.-.                                ",
"                              4.8.<.|.|.d.e.P P f.j 2.2.}.g.h.Y                                 ",
"                              :.8.i.}.}.3.s ....j.k.2.3.}.l.h.-.                                ",
"m.                            n.8.}.}.<.3.D ......a x 3.}.o.p.Y   q.# r.                        ",
"      .                       n.8.}.}.<.3.D ..s.s.s <.3.t.u.v.-.                                ",
"    .                         n.!.|.|.<.3.` ,.u u 0 }.3.w.x.y.Y z.                              ",
"    .                         n.!.A.|.<.}.B.s.u u +.x <.w.W v.-.  -                             ",
"              +               n.!.&.|.<.}.y u C.F [.x 2.D.E.v.-.                                ",
"              +               F.!.&.}.3.}.l C.G.T H.x x I.J.v.K.                                ",
"                              F.L.M.}.<.<.l N.O.>.A.x |.|.P.Q.F.                                ",
"                              R.L.O }.x <.|.&.S.T.<.|.|.|.U.Q.R.                                ",
"                              V.W.T.}.x d.i.|.S.<.|.&.&.|.k X.R.            .                   ",
"Y.          .                 Z.`.O |.|.U. +;..+++@+M.&.A.P.X.V.              .                 ",
"              .               #+$+}.|.|.%+&+*+=+*+*+T.A.&.P.-+;+              .         .       ",
"              .               >+,+M.|.|.}.}.}.x i.x S.}.M.'+)+;+                        .       ",
"                              >+,+T.H.|.}.}.x x x /.x }.!+@.~+{+                                ",
"                              ]+^+/+/+/+/+/+/+/+/+/+/+/+/+(+>+                                  ",
"                                                                                                ",
"'                                                                                               ",
"  ,                                                 '                                     #     ",
"  ;                                                   +                                 _+      ",
"      +                                       .       :+                                        ",
"                                                .         <+                                    ",
"                                                .                                               ",
"                                                                                                "};
