/* XPM */
static char * cherry_xpm[] = {
"48 48 160 2",
"  	c #81BA44",
". 	c #4E8400",
"+ 	c #80B943",
"@ 	c #83BB46",
"# 	c #82BB45",
"$ 	c #7FB842",
"% 	c #85BD47",
"& 	c #82BB44",
"* 	c #9FDF5B",
"= 	c #C1F27A",
"- 	c #7FB742",
"; 	c #7FB843",
"> 	c #91CE50",
", 	c #81B944",
"' 	c #7EB741",
") 	c #008001",
"! 	c #017F01",
"~ 	c #057B05",
"{ 	c #156315",
"] 	c #1C831B",
"^ 	c #017F02",
"/ 	c #097709",
"( 	c #156415",
"_ 	c #018002",
": 	c #228422",
"< 	c #0B810C",
"[ 	c #0A760B",
"} 	c #146614",
"| 	c #008000",
"1 	c #08770A",
"2 	c #088009",
"3 	c #058005",
"4 	c #068007",
"5 	c #09770A",
"6 	c #158215",
"7 	c #148214",
"8 	c #0C730C",
"9 	c #1A671A",
"0 	c #216722",
"a 	c #85BF47",
"b 	c #1F841F",
"c 	c #297029",
"d 	c #136712",
"e 	c #337034",
"f 	c #326C32",
"g 	c #131313",
"h 	c #131513",
"i 	c #015802",
"j 	c #2E872E",
"k 	c #6A1819",
"l 	c #BC0000",
"m 	c #BB0000",
"n 	c #BC0001",
"o 	c #110000",
"p 	c #B20000",
"q 	c #FF0000",
"r 	c #FE1819",
"s 	c #FE6060",
"t 	c #FF6565",
"u 	c #9E0000",
"v 	c #990606",
"w 	c #FE0000",
"x 	c #FE2525",
"y 	c #FE8383",
"z 	c #FF9EA0",
"A 	c #FB5B5B",
"B 	c #9F1A1B",
"C 	c #006B00",
"D 	c #8CC34E",
"E 	c #171717",
"F 	c #6C0304",
"G 	c #E00C0D",
"H 	c #FE8081",
"I 	c #FD9C9D",
"J 	c #DB3434",
"K 	c #A00000",
"L 	c #8D0000",
"M 	c #802020",
"N 	c #83BC46",
"O 	c #84BC46",
"P 	c #DA8686",
"Q 	c #922B2C",
"R 	c #EC0000",
"S 	c #FF4849",
"T 	c #FF5252",
"U 	c #FF3536",
"V 	c #D10000",
"W 	c #72201F",
"X 	c #DE0C0D",
"Y 	c #FA0202",
"Z 	c #EF0000",
"` 	c #690606",
" .	c #F30101",
"..	c #FF8384",
"+.	c #FF9C9D",
"@.	c #FE7575",
"#.	c #FE2D2E",
"$.	c #CE0001",
"%.	c #761615",
"&.	c #82BC45",
"*.	c #D60E0E",
"=.	c #E10C0C",
"-.	c #FD0000",
";.	c #5A0100",
">.	c #D60D0E",
",.	c #FA0101",
"'.	c #FE1A1A",
").	c #FF898A",
"!.	c #FE7777",
"~.	c #FC1616",
"{.	c #CA0706",
"].	c #000202",
"^.	c #630606",
"/.	c #DD0E0F",
"(.	c #E10C0D",
"_.	c #FE0001",
":.	c #490100",
"<.	c #DA0D0E",
"[.	c #FB0102",
"}.	c #FE1E1F",
"|.	c #FE7C7D",
"1.	c #FF9E9F",
"2.	c #FE7879",
"3.	c #CD0000",
"4.	c #000000",
"5.	c #581211",
"6.	c #D50D0E",
"7.	c #D30D0E",
"8.	c #3D0201",
"9.	c #F90202",
"0.	c #FE6566",
"a.	c #FE797A",
"b.	c #2F0101",
"c.	c #300101",
"d.	c #D40D0E",
"e.	c #DC0D0E",
"f.	c #F60304",
"g.	c #FE1212",
"h.	c #FC1717",
"i.	c #C90100",
"j.	c #600303",
"k.	c #D10D0E",
"l.	c #DD0D0D",
"m.	c #CD0001",
"n.	c #720202",
"o.	c #680304",
"p.	c #CA0C0D",
"q.	c #E00D0E",
"r.	c #FA0303",
"s.	c #6C2020",
"t.	c #88BF4A",
"u.	c #5F1111",
"v.	c #5E0203",
"w.	c #6B0102",
"x.	c #6F0001",
"y.	c #6F0000",
"z.	c #6B2425",
"A.	c #82BA44",
"B.	c #7AB23E",
"C.	c #7BB43F",
"                                                                                                ",
"                                                                                                ",
"    .                                                                                           ",
"      .     +             .       .                       @ #                       .           ",
"      .   $                 .   .                         % &       * = =             .     .   ",
"          -                 .   .                       + ;       > * =               .   .     ",
"                                                          , '     * * . .                 .     ",
"                                                                    . .                         ",
"                                                                                                ",
"                                                                                                ",
"                                                                                                ",
"                                                                                                ",
"                                        .                                                       ",
"                                          .                 ) ! ~ {                             ",
"                                          .           ] ) ) ^ / ( (                             ",
"                                          _         : < ) ) [ } (                               ",
"                                            )       : | ) 1 } ( (                               ",
"                                              2   3 4 ) 5 } ( (                                 ",
"                                              6   7 4 8 9 0             a             = = *     ",
"                                            _   b   c d e               #               = * *   ",
"                                          )     _     f   .                 +         . . * *   ",
"                                          |     _         .                             . .     ",
"                                  g g h i         j                                             ",
"                                k l m m n o       |                                             ",
"                                p q r s t u       |                                             ",
"                              v q w x y z A B     C                                             ",
"D                         E F G w w w w H I J K L L L L M         N # O                         ",
"      .                   E F G w w w w w P Q R q S T U V W                                     ",
"    .                     E F X Y w w w Z `  .w w ..+.@.#.$.%.  &.                              ",
"    .                       F *.=.-.w -.;.>.,.w w '.).+.!.~.{.].  -                             ",
"              +               ^./.(._.w :.<.[.w w w }.|.1.2.3.4.                                ",
"              +                 5.6.7.7.8.<.9.w w w w w 0.a.3.4.                                ",
"                                  b.c.b.4.d.e.f.w w w w g.h.i.4.                                ",
"                                          j.k.l.f.w w w w m.n.                                  ",
"                                            o.p.q.r.q q 3.s.                .                   ",
"t.          .                                 u.v.w.x.y.z.                    .                 ",
"              .                                               ,               .         .       ",
"              .                                                                         .       ",
"                                                                                                ",
"                                                                                                ",
"                                                                                                ",
"'                                                                                               ",
"  ,                                                 '                                     #     ",
"  ;                                                   +                                 A.      ",
"      +                                       .       B.                                        ",
"                                                .         C.                                    ",
"                                                .                                               ",
"                                                                                                "};
