/* XPM */
static char * wtng_xpm[] = {
"48 48 41 1",
" 	c #81BA44",
".	c #4E8400",
"+	c #80B943",
"@	c #83BB46",
"#	c #82BB45",
"$	c #7FB842",
"%	c #85BD47",
"&	c #82BB44",
"*	c #9FDF5B",
"=	c #C1F27A",
"-	c #7FB742",
";	c #7FB843",
">	c #91CE50",
",	c #81B944",
"'	c #7EB741",
")	c #5C4E92",
"!	c #F3F2C0",
"~	c #F3F2C1",
"{	c #E8B5AC",
"]	c #5C4F92",
"^	c #E8B5AD",
"/	c #5D4E92",
"(	c #DDD5DE",
"_	c #5E4E92",
":	c #DFD5DE",
"<	c #DCD5DE",
"[	c #85BF47",
"}	c #F2F2C0",
"|	c #F3F0C0",
"1	c #F3F2C2",
"2	c #8CC34E",
"3	c #F3D8C5",
"4	c #84BC46",
"5	c #5C4E93",
"6	c #766DAA",
"7	c #EAE178",
"8	c #88BF4A",
"9	c #5C4C92",
"0	c #82BA44",
"a	c #7AB23E",
"b	c #7BB43F",
"                                                ",
"                                                ",
"  .                                             ",
"   .  +      .   .           @#           .     ",
"   . $        . .            %&   *==      .  . ",
"     -        . .           +;   >*=       . .  ",
"                             ,'  **..        .  ",
"                                  ..            ",
"             ))))))        ))))))               ",
"             ))))))        ))))))               ",
"           ))!!!!!!))    ))!!~!!!))             ",
"           ))!!!!!!))    ))!!!!!!))             ",
"           )){{{{!!])))))))!!^{{{))             ",
"           )){{{{!!)))))/))!!{{{{))             ",
"           )){{{{!!((((((((!!{{{{))             ",
"           )){{{{!!((((((((!!{{{{_)             ",
"           ))!!!!!!((((((((!!!!!!))             ",
"           ))!!!!!!((((:(((!!!!!!))             ",
"           ))!!!!!!((((<(((!!!!!!)) [      ==*  ",
"           ))!!!!!!((((((((!!!!!!)) #       =** ",
"         ))))!}!!!!!!!!!!!!!!!}!!)))) +    ..** ",
"         ))))!!!!!!!!!!!}!!!!!!!!))))       ..  ",
"           ))!!))!!|!!!!!!!!1))!!))             ",
"           ))!!))!!!!!!!!!!!!))!!))             ",
"         ))))!!!!!!!!!!!!!!!!!!!!))))           ",
"         ))))!!!!!!!!!!!!!!!!!!!!))))           ",
"2          ))3333!!!!!!!!!|!!3333))4            ",
"   .       ))3333!!!!!!!!!!!!3333))             ",
"  .          ))55666666666666))))               ",
"  .          ))55666666666666))))-              ",
"       +   ))((!!666677!!6666!!(())             ",
"       +   ))((!!666677!!6666!!(())             ",
"           ))((!!!!!!7777!!!!!!(())             ",
"           ))(<!!}!!!7777!!!!!!(())             ",
"             ))))!!!!!!!!!!!!))))     .         ",
"8     .      ))))!!!!!!!!!!!!))))      .        ",
"       .       ))(((())))(((()),       .    .   ",
"       .       ))(((())))(((()9             .   ",
"                 ))))    ))))                   ",
"                 ))))    ))))                   ",
"                                                ",
"'                                               ",
" ,                        '                  #  ",
" ;                         +                0   ",
"   +                   .   a                    ",
"                        .    b                  ",
"                        .                       ",
"                                                "};
