/* XPM */
static char * wtng_2_xpm[] = {
"48 48 42 1",
" 	c #81BA44",
".	c #4E8400",
"+	c #80B943",
"@	c #83BB46",
"#	c #82BB45",
"$	c #7FB842",
"%	c #85BD47",
"&	c #82BB44",
"*	c #9FDF5B",
"=	c #C1F27A",
"-	c #7FB742",
";	c #7FB843",
">	c #91CE50",
",	c #81B944",
"'	c #7EB741",
")	c #5C4E92",
"!	c #5E4E92",
"~	c #5C4E90",
"{	c #5C4E93",
"]	c #F3F2C0",
"^	c #5D4E92",
"/	c #E8B5AC",
"(	c #DDD5DE",
"_	c #E9B5AC",
":	c #E8B5AD",
"<	c #F3F3C0",
"[	c #F2F2C0",
"}	c #F1F2C0",
"|	c #F3D8C5",
"1	c #8CC34E",
"2	c #766DAA",
"3	c #83BC46",
"4	c #84BC46",
"5	c #766DAB",
"6	c #EAE178",
"7	c #82BC45",
"8	c #DCD5DE",
"9	c #F3F0C0",
"0	c #88BF4A",
"a	c #82BA44",
"b	c #7AB23E",
"c	c #7BB43F",
"                                                ",
"                                                ",
"  .                                             ",
"   .  +      .   .           @#           .     ",
"   . $        . .            %&   *==      .  . ",
"     -        . .           +;   >*=       . .  ",
"                             ,'  **..        .  ",
"                                  ..            ",
"           ))!)))))          ))~)))             ",
"           ))))))))          ))))))             ",
"         ){]]]]]]))))))))))))]]]]]]))           ",
"         ))]]]]]])))))^))))))]]]]]]))           ",
"         ))////]]]]((((((((]]]]////))           ",
"         ))////]]]]((((((((]]]]////))           ",
"         ))/_//]]]]((((((((]]]]////))           ",
"         ))////]]]]((((((((]]]]/://))           ",
"           ))]]]]]]((((((((]]]]]]))             ",
"           ))]]]]]]((((((((]]]]]<))             ",
"         ))))]]]]]]]]]]]]]]]]]]]]))))      ==*  ",
"         ))))]]]]]]]]]]]]]]]]]]]]))))       =** ",
"           ))]]))]]]]]]]]]]]]))]]))   +    ..** ",
"           ))]]))]]]]]]]]]]]]))][))         ..  ",
"         ))))]]}]]]]]]]]]]]]]]]]]))))           ",
"         ))))]]]]]]]]]]]]]]]]]]]]))))           ",
"           ))||||]]]]]]]]]]]]||||))             ",
"           ))||||]]]]]]]]]]]]||||))             ",
"1            ))))222222222222))))3#4            ",
"   .         ))))222522222222))))               ",
"  .            ))222266]]2222)) 7               ",
"  .            ))222266]]2222))  -              ",
"       +     ))((]]]]6666]]]](())               ",
"       +     ))((]]]]6666]]]}8())               ",
"             ))((]]]]]]9]]]]](())               ",
"             ))((]]]]]]]]]]]](())               ",
"               ))}}]]]]]]]]]]))       .         ",
"0     .        ))}}]]]]]]]]]]))        .        ",
"       .       ))(((())))(((()),       .    .   ",
"       .       ))(((())))(((())             .   ",
"                 ))))    ))))                   ",
"                 ))))    ))))                   ",
"                                                ",
"'                                               ",
" ,                        '                  #  ",
" ;                         +                a   ",
"   +                   .   b                    ",
"                        .    c                  ",
"                        .                       ",
"                                                "};
