/* XPM */
static char * grass_xpm[] = {
"48 48 24 1",
" 	c #81BA44",
".	c #4E8400",
"+	c #80B943",
"@	c #83BB46",
"#	c #82BB45",
"$	c #7FB842",
"%	c #85BD47",
"&	c #82BB44",
"*	c #9FDF5B",
"=	c #C1F27A",
"-	c #7FB742",
";	c #7FB843",
">	c #91CE50",
",	c #81B944",
"'	c #7EB741",
")	c #85BF47",
"!	c #8CC34E",
"~	c #83BC46",
"{	c #84BC46",
"]	c #82BC45",
"^	c #88BF4A",
"/	c #82BA44",
"(	c #7AB23E",
"_	c #7BB43F",
"                                                ",
"                                                ",
"  .                                             ",
"   .  +      .   .           @#           .     ",
"   . $        . .            %&   *==      .  . ",
"     -        . .           +;   >*=       . .  ",
"                             ,'  **..        .  ",
"                                  ..            ",
"                                                ",
"                                                ",
"                                                ",
"                                                ",
"                    .                           ",
"                     .                          ",
"                     .                          ",
"                                                ",
"                                                ",
"                                                ",
"                                    )      ==*  ",
"                                    #       =** ",
"                             .        +    ..** ",
"                             .              ..  ",
"                                                ",
"                                                ",
"                                                ",
"                                                ",
"!                                ~#{            ",
"   .                       ==*                  ",
"  .                         =** ]               ",
"  .                        ..**  -              ",
"       +                    ..                  ",
"       +                                        ",
"                                                ",
"                                                ",
"                                      .         ",
"^     .                                .        ",
"       .                       ,       .    .   ",
"       .                                    .   ",
"                                                ",
"                                                ",
"                                                ",
"'                                               ",
" ,                        '                  #  ",
" ;                         +                /   ",
"   +                   .   (                    ",
"                        .    _                  ",
"                        .                       ",
"                                                "};
