/* XPM */
static char * left_1_xpm[] = {
"48 48 33 1",
" 	c #81BA44",
".	c #4E8400",
"+	c #80B943",
"@	c #83BB46",
"#	c #82BB45",
"$	c #7FB842",
"%	c #85BD47",
"&	c #82BB44",
"*	c #9FDF5B",
"=	c #C1F27A",
"-	c #7FB742",
";	c #7FB843",
">	c #91CE50",
",	c #81B944",
"'	c #7EB741",
")	c #5C4E92",
"!	c #F3F2C0",
"~	c #E8B5AC",
"{	c #85BF47",
"]	c #8CC34E",
"^	c #F3D8C5",
"/	c #5C4F92",
"(	c #83BC46",
"_	c #84BC46",
":	c #766DAA",
"<	c #82BC45",
"[	c #EAE178",
"}	c #DDD5DE",
"|	c #F1F2C0",
"1	c #88BF4A",
"2	c #82BA44",
"3	c #7AB23E",
"4	c #7BB43F",
"                                                ",
"                                                ",
"  .                                             ",
"   .  +      .   .           @#           .     ",
"   . $        . .            %&   *==      .  . ",
"     -        . .           +;   >*=       . .  ",
"                             ,'  **..        .  ",
"                                  ..            ",
"                       ))))))                   ",
"                       ))))))                   ",
"                     ))!!!!!!))                 ",
"                     ))!!!!!!))                 ",
"                   ))))!!~~~~!!))               ",
"                   ))))!!~~~~!!))               ",
"                 ))!!!!!!~~~~!!))               ",
"                 ))!!!!!!~~~~!!))               ",
"                 ))!!!!!!!!!!!!))               ",
"                 ))!!!!!!!!!!!!))               ",
"                 ))!!!!!!!!!!!!))   {      ==*  ",
"                 ))!!!!!!!!!!!!))   #       =** ",
"               ))))!!!!!!!!!!!!))))   +    ..** ",
"               ))))!!!!!!!!!!!!))))         ..  ",
"               ))!!!!))!!!!!!!!))               ",
"               ))!!!!))!!!!!!!!))               ",
"               ))!!!!!!!!!!!!!!))))             ",
"               ))!!!!!!!!!!!!!!))))             ",
"]              ))!!!!!!^^^^!!!!)/(#_            ",
"   .           ))!!!!!!^^^^!!!!))               ",
"  .              ))::::::::::)) <               ",
"  .              ))::::::::::))  -              ",
"       +         [[::::::::!!}}))               ",
"       +         [[::::::::!!}}))               ",
"                 [[))!!!!!!!!}}))               ",
"                 [[))!!!!!!!!}}))               ",
"                 ))!!|!!!!!))))       .         ",
"1     .          ))!!!!!!!!))))        .        ",
"       .         ))}}}})))))))),       .    .   ",
"       .         ))}}}}))))))))             .   ",
"                   ))))  ))))                   ",
"                   ))))  ))))                   ",
"                                                ",
"'                                               ",
" ,                        '                  #  ",
" ;                         +                2   ",
"   +                   .   3                    ",
"                        .    4                  ",
"                        .                       ",
"                                                "};
