/* XPM */
static char * moving_left_3_xpm[] = {
"48 48 41 1",
" 	c #81BA44",
".	c #4E8400",
"+	c #80B943",
"@	c #83BB46",
"#	c #82BB45",
"$	c #7FB842",
"%	c #85BD47",
"&	c #82BB44",
"*	c #9FDF5B",
"=	c #C1F27A",
"-	c #7FB742",
";	c #7FB843",
">	c #91CE50",
",	c #81B944",
"'	c #7EB741",
")	c #5C4E92",
"!	c #5C4E93",
"~	c #F3F2C0",
"{	c #E8B5AC",
"]	c #F3F2C1",
"^	c #EAB5AC",
"/	c #85BF47",
"(	c #5D4E92",
"_	c #F3F2C2",
":	c #8CC34E",
"<	c #F3F3C0",
"[	c #F3D8C5",
"}	c #83BC46",
"|	c #84BC46",
"1	c #766FAA",
"2	c #766DAA",
"3	c #82BC45",
"4	c #766DA8",
"5	c #EAE178",
"6	c #EAE179",
"7	c #DDD5DE",
"8	c #88BF4A",
"9	c #DCD5DE",
"0	c #82BA44",
"a	c #7AB23E",
"b	c #7BB43F",
"                                                ",
"                                                ",
"  .                                             ",
"   .  +      .   .           @#           .     ",
"   . $        . .            %&   *==      .  . ",
"     -        . .           +;   >*=       . .  ",
"                             ,'  **..        .  ",
"                                  ..            ",
"                       ))))!)                   ",
"                       ))))))                   ",
"                     ))~~~~~~))                 ",
"                     ))~~~~~~))                 ",
"                   ))))~~{{{{~~))               ",
"                   ))))]~{{{^~~))               ",
"                 ))~~~~~~{{{{~~))               ",
"                 ))~~~~~~{{{{~~))               ",
"                 ))~~~~~~~~~~~~))               ",
"                 ))~~~~~~~~~~~~))               ",
"                 ))~~~~~~~~~~~~))   /      ==*  ",
"                 ))~~~~~~~~~~~~))   #       =** ",
"               )())~~~~~~~~~~~~))))   +    ..** ",
"               ))))~~~~_~~~~~~~))))         ..  ",
"               ))~~~~))~~~~~~~~))               ",
"               )(~~~~))~~~~~~~~))               ",
"               ))~~~~~~~~~~~~~~))))             ",
"               ))~~~~~~~~~~~~~~))))             ",
":              ))~~~~~<[[[[~_~~))}#|            ",
"   .           ))~~~~~~[[[[~~~~))               ",
"  .              ))1222222222)) 3               ",
"  .              ))4222222222))  -              ",
"       +         5622222122~~77))               ",
"       +         5522222222~~77))               ",
"                 55))~~~~~~~~77))               ",
"                 55))~~~~~~~~77))               ",
"                   ))~~~~~~~<))       .         ",
"8     .            ))~~~~~~~~))        .        ",
"       .             ))9777))  ,       .    .   ",
"       .             ))7777))               .   ",
"                       ))))                     ",
"                       ))))                     ",
"                                                ",
"'                                               ",
" ,                        '                  #  ",
" ;                         +                0   ",
"   +                   .   a                    ",
"                        .    b                  ",
"                        .                       ",
"                                                "};
