/* XPM */
static char * moving_left_2_xpm[] = {
"48 48 30 1",
" 	c #81BA44",
".	c #4E8400",
"+	c #80B943",
"@	c #83BB46",
"#	c #82BB45",
"$	c #7FB842",
"%	c #85BD47",
"&	c #82BB44",
"*	c #9FDF5B",
"=	c #C1F27A",
"-	c #7FB742",
";	c #7FB843",
">	c #91CE50",
",	c #81B944",
"'	c #7EB741",
")	c #5C4E92",
"!	c #F3F2C0",
"~	c #5E4E92",
"{	c #E8B5AC",
"]	c #5C4E90",
"^	c #8CC34E",
"/	c #F3D8C5",
"(	c #766DAA",
"_	c #5C4F92",
":	c #EAE178",
"<	c #DDD5DE",
"[	c #88BF4A",
"}	c #82BA44",
"|	c #7AB23E",
"1	c #7BB43F",
"                                                ",
"                                                ",
"  .                                             ",
"   .  +      .   .           @#           .     ",
"   . $        . .            %&   *==      .  . ",
"     -        . .           +;   >*=       . .  ",
"                             ,'  **..        .  ",
"                                  ..            ",
"                                    ))))))      ",
"                                    ))))))      ",
"                                  ))!!!!!!))    ",
"                                  )~!!!!!!))    ",
"                    .           ))))!!{{{{!!))  ",
"                     .          ))))!!{{{{!!))  ",
"                     .        ))!!!!!!{{{{!!))  ",
"                              ))!!!!!!{{{{!!))  ",
"                              ))!!!!!!!!!!!!))  ",
"                              ))!!!!!!!!!!!!))  ",
"                              ))!!!!!!!!!!!!))  ",
"                              ))!!!!!!!!!!!!))* ",
"                            ))))!!!!!!!!!!!!))))",
"                            ))))!!!!!!!!!!!!))))",
"                            ))!!!!))!!!!!!!!))  ",
"                            ))!!!!))!!!!!!!!))  ",
"                            ))!!!!!!!!!!!!!!)]))",
"                            ))!!!!!!!!!!!!!!))))",
"^                           ))!!!!!!////!!!!))  ",
"   .                       =))!!!!!!////!!!!))  ",
"  .                         =*))(((((((((())    ",
"  .                        ..*)_(((((((((())    ",
"       +                    ..::(())<<!!!!))    ",
"       +                      ::(())<<!!!!))    ",
"                              ::))))<<!!!!))    ",
"                              ::))))<<!!!!))    ",
"                              ))))!!))!!!!!!))  ",
"[     .                       ))))!!))!!!!!!))  ",
"       .                      ))))))))))<<<<))  ",
"       .                      ))))))))))<<<<))  ",
"                                ))))    ))))    ",
"                                ))))    ))))    ",
"                                                ",
"'                                               ",
" ,                        '                  #  ",
" ;                         +                }   ",
"   +                   .   |                    ",
"                        .    1                  ",
"                        .                       ",
"                                                "};
