/* XPM */
static char * mud_xpm[] = {
"48 48 114 2",
"  	c #81BA44",
". 	c #4E8400",
"+ 	c #80B943",
"@ 	c #A1BA5E",
"# 	c #CFB380",
"$ 	c #D2B982",
"% 	c #CEB280",
"& 	c #C5B979",
"* 	c #A4BA60",
"= 	c #A0BA5D",
"- 	c #94BA54",
"; 	c #A5BA61",
"> 	c #AABA65",
", 	c #D2B983",
"' 	c #A6BA62",
") 	c #7FB842",
"! 	c #86BA48",
"~ 	c #AFBA69",
"{ 	c #C2BC7A",
"] 	c #E1C397",
"^ 	c #CEC188",
"/ 	c #8BBB4E",
"( 	c #82BA45",
"_ 	c #9CBC5E",
": 	c #D5D38A",
"< 	c #88BA4A",
"[ 	c #7FB742",
"} 	c #83BA46",
"| 	c #8FBA50",
"1 	c #DCBA8B",
"2 	c #E0C195",
"3 	c #E8CFA6",
"4 	c #D4CA95",
"5 	c #8BBB50",
"6 	c #95BD5B",
"7 	c #E1C296",
"8 	c #84BA46",
"9 	c #B4BA6D",
"0 	c #DBBB8B",
"a 	c #E8CEA5",
"b 	c #E8CFA5",
"c 	c #E4CEA3",
"d 	c #9BBE60",
"e 	c #57312B",
"f 	c #DCBC8C",
"g 	c #B8B970",
"h 	c #82BA44",
"i 	c #D0C089",
"j 	c #E3C79C",
"k 	c #E4C79C",
"l 	c #D3C18B",
"m 	c #BAB971",
"n 	c #D6B986",
"o 	c #E2C499",
"p 	c #E3C69A",
"q 	c #D9B988",
"r 	c #84BA47",
"s 	c #D3CA94",
"t 	c #8EBA4F",
"u 	c #DCC090",
"v 	c #E4C89D",
"w 	c #E4C99E",
"x 	c #DEC091",
"y 	c #90BA51",
"z 	c #A8BA63",
"A 	c #DCB98A",
"B 	c #E7CDA4",
"C 	c #ADBA67",
"D 	c #A7BA63",
"E 	c #E1CDA0",
"F 	c #E7CEA5",
"G 	c #BAD171",
"H 	c #9FDF5B",
"I 	c #9B9C59",
"J 	c #B3BA6C",
"K 	c #B2BA6B",
"L 	c #8CC34E",
"M 	c #B1BA6B",
"N 	c #949953",
"O 	c #B1BA6A",
"P 	c #B0BA6A",
"Q 	c #ADBA68",
"R 	c #88BF4A",
"S 	c #A2BA5F",
"T 	c #E5CBA0",
"U 	c #E7CEA4",
"V 	c #E5CBA1",
"W 	c #D2BA84",
"X 	c #E3C59A",
"Y 	c #D9B987",
"Z 	c #53850D",
"` 	c #558612",
" .	c #8DBA4E",
"..	c #BBBB74",
"+.	c #DEBD90",
"@.	c #DFBE91",
"#.	c #BFBB76",
"$.	c #7EB741",
"%.	c #BCBB74",
"&.	c #E2C599",
"*.	c #E2C59A",
"=.	c #E4C89E",
"-.	c #E5C99E",
";.	c #BEBB76",
">.	c #81B944",
",.	c #8CBA4D",
"'.	c #DBB98A",
").	c #E0C194",
"!.	c #91BA51",
"~.	c #82BB45",
"{.	c #7FB843",
"].	c #C4BD7D",
"^.	c #D1B882",
"/.	c #7BB43F",
"                                                                                                ",
"                                                                                                ",
"    .                                                                                           ",
"      .     +           @ # $ $ $ % & * = - ; > $ $ $ $ $ , , $ $ $ $ $ '           .           ",
"      .   )   ! ~ ~ ~ ~ { ] ] ] ] ] ^ / ( (   _ ] ] ] ] ] ] ] ] ] ] ] ] : ~ ~ ~ ~ <   .     .   ",
"          [ } | 1 1 1 1 2 3 3 3 3 3 4 5     ( 6 3 3 3 3 3 3 3 3 3 3 3 3 7 1 1 1 1 - 8 .   .     ",
"            9 0 a a a a b 3 3 3 3 3 c d 3 3 3 3 3 3 3 3 3 e e e 3 3 3 3 b a a a a f g     .     ",
"        h g i j 3 3 3 3 3 3 3 3 3 3 3 3 3 3 3 3 3 3 3 3 3 e e e 3 3 3 3 3 3 3 3 3 k l m }       ",
"        ( n o 3 3 3 3 3 3 3 3 3 3 3 3 3 3 3 3 3 3 3 3 e e e e e 3 3 3 3 3 3 3 3 3 3 p q r       ",
"        ( n o 3 3 3 3 3 3 3 3 3 3 3 3 3 3 3 3 3 3 3 3 e e e e e 3 3 3 3 3 3 3 3 3 3 p q r       ",
"        ( n o 3 3 3 3 3 3 3 3 3 3 3 3 s 3 3 3 3 3 3 3 e e e e 3 3 3 3 3 3 3 3 3 3 3 p q r       ",
"      t ; u v 3 3 3 3 3 3 3 3 3 3 e e e e 3 3 3 3 3 3 e e e e e 3 3 3 e e e 3 3 3 3 w x ' y     ",
"      z A B 3 3 3 3 3 3 3 3 3 3 3 e e e e 3 3 3 3 3 3 e e e e e e e 3 e e e 3 3 3 3 3 a 1 C     ",
"      D A B 3 3 3 3 3 3 3 3 3 3 E e e e e e e 3 3 3 e e e e e e e e 3 e e e e 3 3 3 3 F 1 C     ",
"      D A B 3 3 3 3 3 3 3 3 3 e e e e e e e e e e e e e e e e e e e e e e e e e e 3 3 F 1 C     ",
"      D A B 3 3 3 3 3 3 3 3 3 e e e e e e e e e e e e e e e e e e e e e e e e e e 3 3 F 1 C     ",
"      D A B 3 3 3 3 3 3 3 e e e e e e e e e e e e e e e e e e e e e e e e 3 e e e 3 3 F 1 C     ",
"      D A B 3 3 3 3 3 3 3 e e e e e e e e e e e e e e e e e e e e e e e e 3 e e e 3 3 F 1 C     ",
"      D A B 3 3 3 3 3 3 3 e e e e e e e e e e e e e e e e e e e e e e e e 3 3 3 3 3 3 F 1 G     ",
"      D A B 3 3 3 3 3 3 e e e e e e e e e e e e e e e e e e e e e e e e e 3 3 3 3 3 3 F 1 G H   ",
"      D A B 3 e e e 3 3 e e e e e e e e e e e e e e e e e e e e e e e e e 3 3 3 3 3 3 F 1 G H   ",
"      D A B 3 e e e e 3 e e e e e e e e e e e e e e e e e e e e e e e e e 3 3 3 3 3 3 F 1 I     ",
"      D A B 3 e e e e e e e e e e e e e e e e e e e e e e e e e e e e e e 3 3 3 3 3 3 F 1 C     ",
"      D A B 3 3 e e e e e e e e e e e e e e e e e e e e e e e e e e e e e 3 e e e 3 3 F 1 C     ",
"      D A B 3 3 3 3 e e e e e e e e e e e e e e e e e e e e e e e e e e e e e e e 3 3 F 1 J     ",
"      D A B 3 3 3 e e e e 3 3 e e e e e e e e e e e e e e e e e e e e e e e e e e e 3 F 1 K     ",
"L     D A B 3 3 3 e e e 3 3 3 e e e e e e e e e e e e e e e e e e e e e e e e e e e 3 F 1 M     ",
"      N A B 3 3 3 e e e 3 3 3 3 e e e e e e e e e e e e e e e e e e e e e e e e e e 3 F 1 O     ",
"    . D A B 3 3 3 3 3 3 3 3 3 3 e e e e e e e e e e e e e e e e e e e e 3 e e e e e 3 F 1 P     ",
"    . D A B 3 3 3 3 3 3 3 3 3 3 e e e e e e e e e e e e e e e e e e e e 3 3 3 3 3 3 3 F 1 Q     ",
"      D A B 3 3 3 3 3 3 3 3 3 3 3 e e e e e e e e e e e e e e e e e e 3 3 3 3 3 3 3 3 F 1 C     ",
"      D A B 3 3 3 3 3 3 3 e e e 3 e e e e e e e e e e e e e e e e e e e 3 3 3 3 3 3 3 F 1 C     ",
"      D A B 3 3 3 3 3 e e e e e e e e e e e e e e e e e e e e e e e e e 3 3 3 3 3 3 3 F 1 C     ",
"      D A B 3 3 3 3 3 e e e e e e e e e e e e e e e e e e e e e e e e e 3 3 3 3 3 3 3 F 1 C     ",
"      D A B 3 3 3 3 3 e e e e e e e e e e e e e e e e e 3 e e e e e e 3 3 3 3 3 3 3 3 F 1 C     ",
"R     S , T B 3 3 3 3 e e e e e 3 3 3 3 3 3 e e e e e 3 3 3 e e e e e 3 3 3 3 3 3 3 U V W D     ",
"          n o 3 3 3 3 e e e 3 3 3 3 3 3 3 e e e e e e 3 3 3 e e e e e 3 3 3 3 3 3 3 X Y Z       ",
"        ( n o 3 3 3 3 3 3 3 3 3 3 3 3 3 3 e e e e e e 3 3 3 e e e e 3 3 3 3 3 3 3 3 p q `       ",
"        ( n o 3 3 3 3 3 3 3 3 3 3 3 3 3 3 e e e e e e 3 3 3 3 3 3 3 3 3 3 3 3 3 3 3 p q r       ",
"        ( n o 3 3 3 3 3 3 3 3 3 3 3 3 3 3 e e e 3 3 3 3 3 3 3 3 3 3 3 3 3 3 3 3 3 3 p q r       ",
"           ...+.3 3 3 3 3 3 3 3 3 3 3 3 3 3 3 3 3 3 3 3 3 3 3 3 3 3 3 3 3 3 3 3 3 @.#. .h       ",
"$.          = %.&.*.*.*.=.3 3 3 3 3 3 3 3 3 3 3 3 3 3 3 3 3 3 3 3 3 3 3 -.*.*.*.*.;.S           ",
"  >.          ,.'.A A A ).3 3 3 3 3 3 3 3 3 3 3 3 3 3 3 3 3 3 3 3 3 3 3 7 A A A A !.      ~.    ",
"  {.          ! ~ ~ ~ ~ { ] ] ] ] ] ] ] ] ] ] ] ] ] ] ] ] ] ] ] ] ] ] ] ].~ ~ ~ ~ <     h       ",
"      +                 @ , $ $ $ $ $ $ $ $ $ % $ $ $ ^.$ $ $ $ $ $ $ $ '                       ",
"                                                .         /.                                    ",
"                                                .                                               ",
"                                                                                                "};
