/* XPM */
static char * o_door_xpm[] = {
"48 48 218 2",
"  	c #81BA44",
". 	c #4E8400",
"+ 	c #80B943",
"@ 	c #83BB46",
"# 	c #82BB45",
"$ 	c #7FB842",
"% 	c #85BD47",
"& 	c #82BB44",
"* 	c #9FDF5B",
"= 	c #C1F27A",
"- 	c #7FB742",
"; 	c #7FB843",
"> 	c #91CE50",
", 	c #81B944",
"' 	c #7EB741",
") 	c #D7B6A7",
"! 	c #DCBDAF",
"~ 	c #DDBEB0",
"{ 	c #DAB6AC",
"] 	c #D4AC9E",
"^ 	c #BA958B",
"/ 	c #AE8585",
"( 	c #C49C94",
"_ 	c #D4ABA1",
": 	c #E0BDB1",
"< 	c #CC9C97",
"[ 	c #AA7C84",
"} 	c #683956",
"| 	c #6B2D59",
"1 	c #88576D",
"2 	c #E39975",
"3 	c #EB9254",
"4 	c #E88839",
"5 	c #F4AB73",
"6 	c #D1A799",
"7 	c #662C58",
"8 	c #582446",
"9 	c #3D1125",
"0 	c #2C0A1C",
"a 	c #310C1F",
"b 	c #481D34",
"c 	c #743D62",
"d 	c #BF9398",
"e 	c #CBAAA7",
"f 	c #D97D5D",
"g 	c #E37C33",
"h 	c #CE6F33",
"i 	c #E47A2D",
"j 	c #E88842",
"k 	c #652A54",
"l 	c #3D1329",
"m 	c #380F23",
"n 	c #340D20",
"o 	c #B58A89",
"p 	c #D68C71",
"q 	c #C46332",
"r 	c #964531",
"s 	c #74344C",
"t 	c #63243C",
"u 	c #8B3B28",
"v 	c #C3642F",
"w 	c #9F747A",
"x 	c #42152B",
"y 	c #996A7B",
"z 	c #DC7131",
"A 	c #8A423E",
"B 	c #804258",
"C 	c #7C3C57",
"D 	c #873A37",
"E 	c #7D3A2E",
"F 	c #A7512D",
"G 	c #D36B4B",
"H 	c #451A2E",
"I 	c #552941",
"J 	c #9A6488",
"K 	c #C5756A",
"L 	c #E06E28",
"M 	c #6A2C37",
"N 	c #963B39",
"O 	c #763651",
"P 	c #AE452F",
"Q 	c #4B132C",
"R 	c #CB5C24",
"S 	c #C46A68",
"T 	c #4D2135",
"U 	c #4A1E33",
"V 	c #562A3D",
"W 	c #945D83",
"X 	c #C85F42",
"Y 	c #C05D31",
"Z 	c #A0463A",
"` 	c #682C41",
" .	c #B95537",
"..	c #7A2C39",
"+.	c #5C1B3B",
"@.	c #8B3D32",
"#.	c #9B4332",
"$.	c #D3653C",
"%.	c #4F2538",
"&.	c #5B2D41",
"*.	c #7C4A68",
"=.	c #B18895",
"-.	c #CC5B2A",
";.	c #76343E",
">.	c #7A2F42",
",.	c #681E3D",
"'.	c #C6592A",
").	c #AB7B93",
"!.	c #85BF47",
"~.	c #DB6E31",
"{.	c #DE732C",
"].	c #DB8233",
"^.	c #D6722A",
"/.	c #D56C2C",
"(.	c #DC6D29",
"_.	c #54253A",
":.	c #5D3046",
"<.	c #D5BDBC",
"[.	c #C45523",
"}.	c #E2732A",
"|.	c #7F402F",
"1.	c #663749",
"2.	c #6C3A4D",
"3.	c #643245",
"4.	c #D7C1BE",
"5.	c #DB6C26",
"6.	c #E27227",
"7.	c #824343",
"8.	c #BF6832",
"9.	c #C4682F",
"0.	c #D76824",
"a.	c #97578B",
"b.	c #542235",
"c.	c #CAB6B8",
"d.	c #440B1F",
"e.	c #50101C",
"f.	c #D46D30",
"g.	c #A36685",
"h.	c #6A3549",
"i.	c #A57592",
"j.	c #924A2C",
"k.	c #9A4D75",
"l.	c #683447",
"m.	c #59253B",
"n.	c #693139",
"o.	c #5A1A37",
"p.	c #782E2F",
"q.	c #894231",
"r.	c #5C2A3E",
"s.	c #C2A2AD",
"t.	c #8CC34E",
"u.	c #6A1D34",
"v.	c #AF9399",
"w.	c #83BC46",
"x.	c #84BC46",
"y.	c #B47682",
"z.	c #C0868E",
"A.	c #CA622A",
"B.	c #8A412C",
"C.	c #612E41",
"D.	c #935A7B",
"E.	c #AE8C96",
"F.	c #A8597B",
"G.	c #B88BB7",
"H.	c #E37330",
"I.	c #6E2E4A",
"J.	c #662744",
"K.	c #741F34",
"L.	c #D96725",
"M.	c #82BC45",
"N.	c #B2668B",
"O.	c #A65987",
"P.	c #BA6E91",
"Q.	c #934849",
"R.	c #D56424",
"S.	c #8D3F2E",
"T.	c #925678",
"U.	c #BE5553",
"V.	c #D56C56",
"W.	c #915475",
"X.	c #BC9EAD",
"Y.	c #D2622D",
"Z.	c #C24D23",
"`.	c #D15D23",
" +	c #8F5374",
".+	c #B49BAD",
"++	c #D05C2A",
"@+	c #CF6441",
"#+	c #DA6F3B",
"$+	c #C95624",
"%+	c #B197AC",
"&+	c #88BF4A",
"*+	c #9547AB",
"=+	c #8A537B",
"-+	c #8E4294",
";+	c #CE6979",
">+	c #C8551F",
",+	c #D66643",
"'+	c #D26A41",
")+	c #9E4B62",
"!+	c #B29DB4",
"~+	c #923F25",
"{+	c #B1A2BC",
"]+	c #D87731",
"^+	c #531F36",
"/+	c #AFA3BC",
"(+	c #C77F76",
"_+	c #CB7D76",
":+	c #955A60",
"<+	c #5C5458",
"[+	c #67585D",
"}+	c #705761",
"|+	c #6F5761",
"1+	c #9C7693",
"2+	c #B2A9C0",
"3+	c #82BA44",
"4+	c #7AB23E",
"5+	c #7BB43F",
"                                                                                                ",
"                                                                                                ",
"    .                                                                                           ",
"      .     +             .       .                       @ #                       .           ",
"      .   $                 .   .                         % &       * = =             .     .   ",
"          -                 .   .                       + ;       > * =               .   .     ",
"                                                          , '     * * . .                 .     ",
"                                                                    . .                         ",
"                                                                                                ",
"                                            ) ! ~ !                                             ",
"                                        { ] ^ / / ( _ :                                         ",
"                                    ~ < [ } | | | | 1 ( _                                       ",
"                2 3 4 3 5         ~ 6 1 7 8 9 0 a b 7 c d e                                     ",
"              f 4 g h h i j       ] 1 k l m m 9 m n n 8 c o                                     ",
"            p i q r s t u v g   ) w k x x l 9 9 9 9 9 9 k y e                                   ",
"            z q r A B C D E F G < | b H H l l 9 9 9 9 9 I J e                                   ",
"          K L M N N C O N P Q R S c T U H x l 9 H V H 9 l W d                                   ",
"          X Y Z ` t  . ...+.@.#.$.} %.U H x 9 H &.&.V x 9 *.=.                                  ",
"          -.N t ;.+.;.>.,.t ` ,.'.M %.U H 9 l V V &.&.%.9 } ).          !.            = = *     ",
"          ~.{.{.4 ].^./././././.(.E 9 l 9 9 _.V V V V _.9 :.).<.        #               = * *   ",
"          z (.R R R R R R R [.-.}.|.9 9 9 U &.1.2.2.3._.9 &.).4.            +         . . * *   ",
"          z (.(.}.}.i i }.(.(.5.6.7.9 9 9 &.2.2.2.2.2.:.9 I ).<.                        . .     ",
"          z {.}.}.g 8.9.i 5.0.0.6.a.9 9 b.2.2.2.2.2.2.3.H I ).c.                                ",
"          ~.{.}.}.9.d.e.f.5.0.0.6.g.9 x 1.2.2.2.h.h.h.&._._.i.c.                                ",
"          ~.(.}.L j.Q Q F 6.0.0.6.k.9 %.2.2.2.2.h.h.l.&.m._.i.c.                                ",
"          ~.(.}.L n.t o.p.g (.0.6.q.9 3.2.2.h.h.1.l.3.r.m._.i.s.                                ",
"t.        5.5.}./.b.+.o.u.i 6.5.6.q.H l.h.h.h.l.3.3.3.m.m.m.J v.  w.# x.                        ",
"      .   y.z.}.A.t h.+.u.{.6.(.L B.T l.l.h.3.3.3.3.C.m.m.m.D.E.                                ",
"    .     F.G.H.A.I.s J.K.{.6.(.L.B._.l.l.3.3.3.3.C.r.m.m.m.D.E.M.                              ",
"    .     F.N.}.0.s s I...}.6.5.L.B.r.l.3.3.3.C.C.C.r.m.m.m.D.s.  -                             ",
"          O.P.6.0.Q.O O #.6.6.5.R.S.&.3.3.3.C.C.C.r.m.m.m.m.T.s.                                ",
"          U.V.6.0. .O O Y (.6.(.R.@.&.3.3.C.C.r.r.r.m.m.m.m.W.X.                                ",
"          Y.5.(.6.Z.N Z 5.6.L (.`.S.r.C.C.r.r.r.r.m.m.m.m.m.W.X.                                ",
"          /.0.0.5.R.[.5.0.6.L 0.R @.r.C.&.r.r.r.r.m.m.m.m.m. +.+                                ",
"          ++0.L.L.~.$.@+V.#+(.0.$+O.m.r.r.r.r.m.m.m.m.m.m.m. +%+            .                   ",
"&+        ++L.R.`.*+a.=+-+;+(.5.>+O._.r.r.r.m.m.m.m.m.m.m.b.W.%+              .                 ",
"          R L.R.`.,+'+'+G (.(.(.5.)+U m.m.m.m.m.m.m.m.m.m.b.D.!+              .         .       ",
"          $+`.5.5.(.5.5.5.5.5.0.`.~+H m.m.m.m.m.m.m.m.m.m.b.W {+                        .       ",
"          [.R ~.z g ]+^.^.f.f.Y.>+u 9 ^+m.m.m.m.m.m.m.m.m.b.J /+                                ",
"          (+_+_+_+_+_+_+_+_+_+K S :+<+<+[+}+}+}+}+}+}+}+}+|+1+2+                                ",
"                                                                                                ",
"'                                                                                               ",
"  ,                                                 '                                     #     ",
"  ;                                                   +                                 3+      ",
"      +                                       .       4+                                        ",
"                                                .         5+                                    ",
"                                                .                                               ",
"                                                                                                "};
