/* XPM */
static char *_268a450fd13495e8f8c5154b79a1472aNAsH9yZzHXSLkgB[] = {
/* columns rows colors chars-per-pixel */
"48 48 126 2 ",
"   c #96CFBE",
".  c #99CFBD",
"X  c #96D1BE",
"o  c #9BD3BD",
"O  c #9ED8BF",
"+  c #A1D5BE",
"@  c #A2D9BE",
"#  c #A8DEBE",
"$  c #AEE7BE",
"%  c #B2E1BF",
"&  c #9BCEC5",
"*  c #96D3C3",
"=  c #9BD4C3",
"-  c #9ED8C4",
";  c #9BD3C8",
":  c #99D2C9",
">  c #9DD2C8",
",  c #9ED3C9",
"<  c #98D4C8",
"1  c #99D5C9",
"2  c #9AD4C8",
"3  c #9AD7C8",
"4  c #9BD4CB",
"5  c #9DD5C8",
"6  c #9CD4C9",
"7  c #9DD7C8",
"8  c #9ED7C8",
"9  c #9ED6C9",
"0  c #9BD4CD",
"q  c #9BD4CE",
"w  c #9CD5C9",
"e  c #9FD8C9",
"r  c #A1D4C1",
"t  c #A0D7C0",
"y  c #A1D7C0",
"u  c #A2D6C0",
"i  c #A1D6C2",
"p  c #A0D7C2",
"a  c #A2D7C3",
"s  c #A6D7C1",
"d  c #A0D5C5",
"f  c #A0D7C4",
"g  c #A0D6C6",
"h  c #A1D6C2",
"j  c #A1D8C1",
"k  c #A2D8C0",
"l  c #A2D8C1",
"z  c #A1D8C3",
"x  c #A0DAC2",
"c  c #A3DAC3",
"v  c #A4D8C1",
"b  c #A4DAC0",
"n  c #A6DCC2",
"m  c #A7DDC3",
"M  c #A6DEC3",
"N  c #A3D8C4",
"B  c #A0DAC4",
"V  c #A1DBC5",
"C  c #A0D9C6",
"Z  c #A1DAC7",
"A  c #A4DBC4",
"S  c #A6DAC4",
"D  c #A7DBC4",
"F  c #A2DCC6",
"G  c #A3DDC7",
"H  c #A5DCC5",
"J  c #A6DDC6",
"K  c #A7DDC6",
"L  c #A5DFC6",
"P  c #A7DEC7",
"I  c #A3DAC4",
"U  c #A9DBC2",
"Y  c #AADFC1",
"T  c #A8DDC3",
"R  c #ABDDC2",
"E  c #A8DFC2",
"W  c #AADFC3",
"Q  c #ADDDC3",
"!  c #ACDEC3",
"~  c #ABDDC4",
"^  c #A8DEC4",
"/  c #A9DEC4",
"(  c #A9DDC7",
")  c #A9DEC4",
"_  c #A0D6C9",
"`  c #A0D5CB",
"'  c #A0D6C9",
"]  c #A2DBC8",
"[  c #A4DBC8",
"{  c #A3DCC9",
"}  c #A7DCC8",
"|  c #A6DDC8",
" . c #A3DBC8",
".. c #A9DEC9",
"X. c #A7E0C0",
"o. c #A8E0C3",
"O. c #ABE0C2",
"+. c #A9E2C2",
"@. c #AFE0C2",
"#. c #ADE3C3",
"$. c #ACE4C1",
"%. c #AEE4C0",
"&. c #AEE4C2",
"*. c #A9E1C6",
"=. c #A8E0C7",
"-. c #ABE1C7",
";. c #AEE3C5",
":. c #AFE1C6",
">. c #AEE3C7",
",. c #ACE5C5",
"<. c #ACE2C4",
"1. c #A7E0CC",
"2. c #ABE3C8",
"3. c #ACE0C9",
"4. c #AFE1C8",
"5. c #AEE2CB",
"6. c #ABE0CC",
"7. c #AFE5CE",
"8. c #ACE2CA",
"9. c #B2E0C3",
"0. c #B0E7C0",
"q. c #B3E1C4",
"w. c #B0E2C5",
"e. c #B1E2C3",
"r. c #B4E6CD",
"t. c #B4E6CD",
/* pixels */
"o = 5 8 _ > > 5 X = = = t T @.% +.@ o = 5 5 = o = = 8 = = z / w./ D o o = 5 = = = = = = - z T @.",
"5 5 = = = = o - + o = o o - o o - = = = = o o z t - = = * = o + 5 = = = 5 5 8 5 o o - = = o o + ",
"= = = = 5 z H =.! U t - = = = * = = > _ 5 = - H T n - 5 5 8 = = : 1 = = = * X X T n S - 5 = = 5 ",
"- - 5 = o o o o s t = = = = = < = = = = = = o o @ + o = = = = = = = 5 5 5 5 5 - @ z t 5 = = = = ",
"o o o = = 5 5 5 = = = = = = - t @ @ t - - = = = = = = = = = = o o o o o o o = = = = = = = = o o ",
",.2.H C = = = = < 1 1 8 5 o + D # +.=.H - = 5 8 = 5 5 5 - - o - :.:.=.H z g 5 5 8 5 5 5 5 = o o ",
"o t - = = = 5 - = = = = = o o t o z z t = = = 5 = = = = = o = = o o o o o = = = = = = = = = = = ",
". = 5 = = - o o - = = = = = = 5 = = = = 5 5 5 = = = = = = 5 5 5 = = = = = = = = = = = = 5 5 5 > ",
"5 5 = o o = = = t D :.w.! D = = = = o o = o = = = z +.%.%.T z o = = = = = = = = = g / w.9.T z = ",
"= = o = - - - = - o o o o o = 5 = = = - - 5 - o o o o o o o = : = 5 = = = 5 - = = = o o o o = = ",
"5 5 - - { { C - = = = = = 5 5 = - = = 5 C C 5 o 0 0 1 = = o o o = = = o = ] ] - = = = = = = = 5 ",
"= = = = - 5 - = = = = 8 8 5 o o = = = 5 - - 5 = o o 5 5 5 8 = = - - o o - C C - o - = = = = o o ",
"= = = = o o = - o o . = g } 3.:.= = = = = = = = o = = = - n %.$ F - o = - = o o + o o = = - / 3.",
"- 5 5 - = = - F 7.6.[ - - o o o = - - = = = = - % %.T z = = o o C = o - - o = = r.3.} 5 = o o + ",
"o = = = = o o = o o o = = = = = = = - = = = = - o o - = = - o o = o o = 5 = = 5 o o = = = - - 5 ",
"- = = 5 5 = o o 5 5 = = * = = = = = = = = 5 = = - - 5 = < 1 0 0 = - 5 = = = = = 3 = 5 = = = * < ",
"* = = = t T @.% +.@ o = 5 - o o = = 8 = = z / w./ D o o = 5 = = = = = = - z T @.5 - - = = = = o ",
"+ o = o o - o o - = = = = o o z t - = = * = o + 5 = = = - 5 8 5 o o - = = o o +   X = = = = 5 5 ",
"! U t - = = = * = = > _ 5 = - H T n - 5 5 8 = = : 1 = = = * * X T n S - 5 = = 5 _ 8 8 8 5 5 = = ",
"s t - = = = = < = = = = = = o o @ + o = = = = = = = 5 5 5 5 5 - @ z t 5 = = = = = = = = = = = = ",
"= = = = = = - t @ @ t - = = = = = = = = = = = o o o o o o = = = = = = = = = = o + - - o = = = = ",
"1 1 1 8 5 o t S # +.=.H - = 5 8 = 5 5 5 - - o O :.:.=.H C g 5 5 > = 5 5 5 - = o 3.2.H z - o o o ",
"= = = = = o o t o t z t = o = 5 = = = = = o = = o o o o = = = = = = = = = = = = o o o o = = = = ",
"- = = = = = = 5 = = = = 5 5 5 = = = = = = 5 5 5 = = = = = = = = * = = = 5 5 5 8 o = - = = = = = ",
"t S :.w.! D = = o o o o o o = = = z +.%.%.T @ o = = = 5 5 = o = = g / w.9.T z = = = = 5 = = = - ",
"- - o o o o = 5 = = o - 5 - - = = o o o o o = : = 5 5 = = - - o = = - o o o o = = = = = = 5 = o ",
"= = = = = 5 5 = - = = 5 C C 5 = 0 0 1 = = o o o = 5 = o = C ] - = = = = = = = - o = = = e 1.1.- ",
"= = = 8 8 5 o o = = = 5 - - 5 = o o 5 5 5 8 = = - - o o - z - = o - = = = = o o - 5 = = = - - o ",
"o o . = g H 3.:.= = = 5 = = = = = = = = - n %.$ F - o = - = o o + o o = = - / 3.F - = = = o o o ",
"7.6.S - - o o o = = - = = = = 5 0.%.T z = = o o C = o = - o = = r.3.} 5 = o o + 5 = = 5 5 - z 2.",
"o o o = = = = = = = - = = = = - o = - o = - o o = o o = 5 = = 5 o o = = = - - 5 5 = = = = X o - ",
"5 5 = = * = = = = = = = = 5 = = - - = < < 1 0 0 - - 5 = = = = = 3 = 5 = = = * < = = 5 = = 5 - = ",
"= = = = - z T @.:.T z o = = = = = = = = = - D n $ @ + o = 5 = = = - o o - 5 C H / z o = - - - - ",
"o o - = = o o + - o = = = 5 5 - O t - = = = = - t - = = = = = = = - t t = = o o o = = = = = = = ",
"T n S - 5 = = 5 = = = = = = X X X.H H ] 5 5 5 8 5 5 = = = = = - g H ..} ] 5 = - = = = _ 5 = 5 5 ",
"@ z t 5 = = = = = = = 5 = 5 - - + @ - 5 = = = = = = = = = o o o - z z t = = = - - = = = = = = = ",
"= = = = = = o o o o o o = = = = o o = = = = = = o t z t - - = = = o o o = = = = - t t - o o o = ",
"8 5 5 5 5 = o o =.:.3...} ] 5 = 5 = 5 5 5 - - = + D / / H C 5 = 5 = o - 5 8 5 = - H 2.H o o - 5 ",
"= = = = = = = = . o o + - - = = = = = = = = = = = - t t t - = * = = = = = = = o o - C z o o = = ",
"= = = = 5 5 5 > 1 5 5 = o o = = o o = = 5 5 5 > 1 = = = = = = = 8 5 - = = = = - 5 = = o 5 e 8 = ",
"= g / w.9.T z = = = = 5 5 = o = & = z # %.:./ N = = = = = 5 5 = = - @ # @.@.U s = = = = = 5 = = ",
"= = o o o o = = = 5 5 = = 5 - = ` 5 o o o o o . 5 5 = = = = o o = = o o @ @ o . 8 5 = = = = o o ",
"= = = = = = = 5 = - = o = C ] - = = = = - - - - = = 5 5 5 C / 3.8 = = = = 5 5 = = = 5 5 5 C / 3.",
"o - = = = = o o - - o o - z z = = 5 5 5 = o o o - - = = X o o + o = = = = = 5 - = - = o X o o + ",
"+ o o = = - / :.F - o = - = o o . o - = = - H 7.:./ S 5 5 5 5 = o + S ] = = - C 3./ S 5 5 5 5 = ",
"r.3.} 5 = o o + C = X = - o = = H ....S t o o z o o o o = = = = + S ..[ g = - C o o o o = = = = ",
"o o = = = - - 5 = o o = 5 = = 5 . = t z - = o = t - - = = = = = - - t - o o o = t - 5 = = = = = ",
"3 = 5 = = = * < - - 5 = = = = = 8 = = = = = = = = = 5 8 = = o o 5 = = o o = = 1 = = 5 8 = = o o "
};
