/* XPM */
static char *f15558c50ce845838faa85b105575c30dpzsYHpMXfL8hITU[] = {
/* columns rows colors chars-per-pixel */
"48 48 70 1 ",
"  c #252118",
". c #27241E",
"X c #29251B",
"o c #29251C",
"O c #282622",
"+ c #2B2822",
"@ c #2D2A23",
"# c #292827",
"$ c #2A2929",
"% c #2D2C2A",
"& c #2D2D2D",
"* c #352F23",
"= c #353024",
"- c #32302A",
"; c #36332B",
": c #37342B",
"> c #37342C",
", c #38352A",
"< c #39362C",
"1 c #3C372D",
"2 c #313131",
"3 c #373530",
"4 c #353535",
"5 c #383631",
"6 c #3E3A32",
"7 c #393836",
"8 c #393939",
"9 c #3B3A3A",
"0 c #3F3C39",
"q c #3C3C3C",
"w c #403D35",
"e c #403F3B",
"r c #403E3D",
"t c #434038",
"y c #44413A",
"u c #46433B",
"i c #46433C",
"p c #414141",
"a c #474541",
"s c gray28",
"d c #494740",
"f c #4C4A44",
"g c #484848",
"h c #4F4C48",
"j c #4E4D4B",
"k c #4E4E4E",
"l c #52504B",
"z c #52504D",
"x c #535353",
"c c #545350",
"v c #555450",
"b c gray33",
"n c #585755",
"m c #585858",
"M c #5B5B5B",
"N c #5D5C59",
"B c #5D5D5D",
"V c #62605E",
"C c gray38",
"Z c #646361",
"A c #646464",
"S c #686868",
"D c #6A6A6A",
"F c #6C6B6B",
"G c #6C6C6B",
"H c #6D6D6D",
"J c gray44",
"K c gray45",
"L c #747474",
"P c gray46",
/* pixels */
"8kgkkkkkkggkkkgbbbBMb@ooooooooooooooooooo+&sggg8",
"sCMCCCCCCBBCCBMADDKKF<<wwwwwwwwwwwwwwwww,>8bMMMg",
"pMCBMMMBCBMMMMMMMMDHF<cHHHHHHHHHHHHHHHHHi>8bBCMg",
"2sgsssssgsssssssssgMD<ekKKKKKKKKKKKKKKKHi:8ssgs4",
"#777777777777777777jV,3qHKKPPKPPKKKKKPKHy;77777%",
" ===================*=3qMAHPKHPHHHHHHKKHi======X",
"sCCCN=vCCCCCCCCCCCCCC,3qMAHHHHHHHKKKKPKHyyCCCCCk",
"kHHHA=vAHHHHHHHHHHHHF<3qMAHHHHHHHKPPKPKHyyCHHHHM",
"kHPHA=7gPPPPPPPPKHPKF<3qMAHDHHHKPHKPHKKHy;8HPPPB",
"bKHHA=7sBKPPHKPHKPPKF<3qMCAADHHHHPPPPPKHy>8MAHHM",
"bPHHA=7pMDKKHHPKKKPKF<3qMBCCADHDDKKKKPKHy>8bCDDb",
"bPPHA=7pMCAHHHPPKHPKF<3qMMMCCAHAAHHHHKKHi>8bBADb",
"bPPHA=7pMMBADHHHHDKKF<3qMBCMCCAAAHHHPPKHi>8bBCDb",
"xKPHA=7pMMBCADDDDHPKF<3qMBCBBCCCADDHKPPHi<8MCCDb",
"kHPHA=7pMMBCCCCCAHKKF<3qMBCCBMMCCCDHHKKHy>8BCCDb",
"kHHHA=7pMMBCBMMCDPPKF<3qMMMMBCCCCMCAHKKHy>8bBCAx",
"gDDDA=7pMMMBMMMBCDKKF<3qMMMMBBBBBMBCDKKHy>8bBBCk",
"gCCDA=7pMMMMMMMMMMKKF<3qMMMMMMMMMMMMCHKHy>8bMMCk",
"gCMAA=78qqqqqqqqqqqbF<38qqqqqqqqqqqqqqkHy>8bMMMg",
"qxkCA=>555555555555av;;555555555555555ev6>8gkkkq",
"$88MZ===,,,,,,,,,,,,,,,,,,,,==,,,,,,,,,,=,88888&",
" ======yDDDDDDDDDDDDDDDDDDDDl1DDDDDDDDDDi======o",
"rnnnnnt6bDKKKKKKKKKKKKKKKKKHz,bAKKKKKKKHiwMnnnna",
"kHHHHHf;8DKPPPPPPPPPPPPPPPPHz=8CKPPPPPKHidDHHHHb",
"bPPPPHf;8xBHHHPHHPPPPPKHHKPHz=8xBPPKHKKHy>8HPPPB",
"bPKKPHf;8xBADHKHHPPPPPKKKKPHz=8xBKPKHKKHy>8CHPPB",
"bPHKPHf;8xBCDDDHHPPPPPPPPPPHz=8xBHKPHKKHy>8bAPPB",
"bPHKPHf;8xMMCCCDHHHHHPKHHKPHz=8xBHKPPPKHy>8bCHHb",
"xKKPPHf;8xBCCCCADHHHHPPKKPPHz=8bCHHKPKHHi>8MCADb",
"kHKPPHf;8xBCCCCCAHHHHKPPKPPHz=8bCDDHKKHHi<8BCCDb",
"kHHKPHf;8xMMCCCCAHHHHHKPHKPHz=8xMCDHHKKHy>8bBCCk",
"kHKPPHf;qbMMBCCCAAADHHHHKPPHz=8bCCDHKPKHy>8bMBCk",
"kHKPPHf;8xMMBBCCCCCADDDHPPPHz=8bCCDHKPKHy>8bMMCk",
"kHHKPHf;8xMMCCMMBCCCCCDHPPPHz=8xMMAHHKKHy>8bMMCk",
"gAAKPHf;8xMMCCCMMBCCCCDHDHPHz=8xMCDHKKHHy>8bBCBg",
"sCCHPHf;8xMMBCCMMMCCCCADCHPHz=8xMCDHKKHHy>8bBCBg",
"pMCHPHf;8xMMMMMMMMCBMMMMCHPHz=8xMCDHHKKHy>8bMMCk",
"pMBHPHf;8xMMMMMMMMBMMMMMBDPHz=8xMCAAHKKHy>8bMMBg",
"8xxBAHf;8kxxxxxxxxzxzzxxxBAHz=8xMCCAHKKHy>8kxxxp",
"$888sHf;888888888888888888qDz=8xMCCAHHHHi>88888&",
" ;=;;w,=;;;;==;;;;;;==;;;;;w<=8xMMMBHKKHi=;;;;;o",
"5jjjjjjjjfjjjjjjjjjjj=ejjjjjw=8xMBBCHKKHy6jjjjj0",
"kHHGHHHHHHHHGGGGHHHHF,zGHHHHz=8xMCCAHKKHydHHGGHb",
"bPPPPPPPPPPPPPPPPPPKF,7pDKPHz=8xMCBBAKKHy<pHPPPB",
"bPKKKPKKKKKPKKKPPPKHF<3qCDKGz=8xMBBBCKKHy>8ADHKM",
"bPHHHPHHHHHPHGHPPPHHF<3qMCDGz=8kMMMMCKKHy>8bBCDb",
"gACAAHHHHHHHHHHHKPPKF<38qqpDz=8qqqqqqqkHy>8bBCAx",
"2ggggkkkkkkkkkkkxbbxkoO$$$&k7 $$$$$$$$4z-.$qsgg8"
};
